<?xml version="1.0" encoding="UTF-8"?>
<svg version="1.1" xmlns="http://www.w3.org/2000/svg" width="100" height="100">
<path d="M0 0 C1.98 0 3.96 0 6 0 C6.3403125 0.9590625 6.3403125 0.9590625 6.6875 1.9375 C7.120625 2.618125 7.55375 3.29875 8 4 C9.2375 4.2475 9.2375 4.2475 10.5 4.5 C13 5 13 5 14.3125 6.875 C15 9 15 9 15 12 C17.41760876 11.88573491 19.83347218 11.75900339 22.25 11.625 C22.93191406 11.5940625 23.61382812 11.563125 24.31640625 11.53125 C29.50300488 11.29383604 29.50300488 11.29383604 34 9 C34.69632215 7.04634555 34.69632215 7.04634555 34.75 4.875 C34.8325 3.59625 34.915 2.3175 35 1 C36.32 0.67 37.64 0.34 39 0 C39.28875 1.134375 39.5775 2.26875 39.875 3.4375 C40.24625 4.613125 40.6175 5.78875 41 7 C41.99 7.495 41.99 7.495 43 8 C42.75 9.859375 42.75 9.859375 42 12 C34.40554413 17.69584191 23.9266693 16.37280753 15 16 C15 17.32 15 18.64 15 20 C17.31 19.67 19.62 19.34 22 19 C23.5625 20.625 23.5625 20.625 25 23 C24.87403359 28.79445504 22.07292553 32.60816285 18.375 36.875 C17 38 17 38 15 38 C15.495 47.405 15.495 47.405 16 57 C22.27 56.67 28.54 56.34 35 56 C34.67 49.73 34.34 43.46 34 37 C30.7 37 27.4 37 24 37 C23.505 35.02 23.505 35.02 23 33 C24.73219928 31.26780072 27.02026808 31.78708239 29.375 31.75 C30.35210937 31.72421875 31.32921875 31.6984375 32.3359375 31.671875 C35.42030679 32.05176799 36.11760953 32.6129928 38 35 C41.15322697 38.40216594 43.5390697 40.59799333 48 42 C46.824375 41.13375 46.824375 41.13375 45.625 40.25 C43.19952756 38.17102363 42.14305583 36.90959667 41 34 C43 32 43 32 45.06298828 31.77294922 C46.30411377 31.78865967 46.30411377 31.78865967 47.5703125 31.8046875 C48.46621094 31.81113281 49.36210938 31.81757812 50.28515625 31.82421875 C51.69087891 31.84935547 51.69087891 31.84935547 53.125 31.875 C54.06988281 31.88402344 55.01476562 31.89304687 55.98828125 31.90234375 C58.32577292 31.92595478 60.66276123 31.95888484 63 32 C63 31.34 63 30.68 63 30 C58.05 30 53.1 30 48 30 C48.33 28.68 48.66 27.36 49 26 C55.27 26 61.54 26 68 26 C68 25.34 68 24.68 68 24 C61.4 24 54.8 24 48 24 C48 22.68 48 21.36 48 20 C52.95 20 57.9 20 63 20 C63 19.34 63 18.68 63 18 C58.38 18 53.76 18 49 18 C48.505 16.02 48.505 16.02 48 14 C51.3 13.67 54.6 13.34 58 13 C54.04 12.67 50.08 12.34 46 12 C45.505 10.02 45.505 10.02 45 8 C46 7 46 7 48.28515625 6.90234375 C49.20167969 6.91394531 50.11820312 6.92554688 51.0625 6.9375 C51.98160156 6.94652344 52.90070313 6.95554687 53.84765625 6.96484375 C54.55792969 6.97644531 55.26820312 6.98804688 56 7 C56 4.69 56 2.38 56 0 C57.32 0 58.64 0 60 0 C60.1953125 2.01822917 60.390625 4.03645833 60.5859375 6.0546875 C60.86374749 8.22668245 60.86374749 8.22668245 63 10 C63 11.32 63 12.64 63 14 C64.32 14.33 65.64 14.66 67 15 C67.0825 15.78375 67.165 16.5675 67.25 17.375 C67.72806339 20.14749104 67.72806339 20.14749104 70.0625 21.3125 C70.701875 21.539375 71.34125 21.76625 72 22 C72 23.98 72 25.96 72 28 C71.0409375 28.3403125 71.0409375 28.3403125 70.0625 28.6875 C69.381875 29.120625 68.70125 29.55375 68 30 C67.835 30.825 67.67 31.65 67.5 32.5 C67 35 67 35 65.328125 36.1484375 C62.50253369 37.18195915 60.25127883 37.19645902 57.25 37.125 C55.77273437 37.09792969 55.77273437 37.09792969 54.265625 37.0703125 C53.51796875 37.04710937 52.7703125 37.02390625 52 37 C52.495 40.465 52.495 40.465 53 44 C51.375 45.5625 51.375 45.5625 49 47 C45.98266875 46.7586135 43.70716958 46.35358479 41 45 C40.96261719 45.83144531 40.92523438 46.66289063 40.88671875 47.51953125 C40.82097656 48.60621094 40.75523438 49.69289062 40.6875 50.8125 C40.60048828 52.43091797 40.60048828 52.43091797 40.51171875 54.08203125 C39.95460394 57.25886151 39.47838586 58.06638011 37 60 C33.59783406 63.15322697 31.40200667 65.5390697 30 70 C30.86625 68.824375 30.86625 68.824375 31.75 67.625 C33.82897637 65.19952756 35.09040333 64.14305583 38 63 C40 65 40 65 40.22705078 67.06298828 C40.21657715 67.89040527 40.20610352 68.71782227 40.1953125 69.5703125 C40.18886719 70.46621094 40.18242188 71.36210938 40.17578125 72.28515625 C40.15902344 73.22230469 40.14226562 74.15945312 40.125 75.125 C40.11597656 76.06988281 40.10695312 77.01476562 40.09765625 77.98828125 C40.07404522 80.32577292 40.04111516 82.66276123 40 85 C40.66 85 41.32 85 42 85 C42 80.05 42 75.1 42 70 C43.98 70.495 43.98 70.495 46 71 C46 77.27 46 83.54 46 90 C46.66 90 47.32 90 48 90 C48 83.4 48 76.8 48 70 C49.32 70 50.64 70 52 70 C52 74.95 52 79.9 52 85 C52.66 85 53.32 85 54 85 C54 80.38 54 75.76 54 71 C55.32 70.67 56.64 70.34 58 70 C58.495 74.95 58.495 74.95 59 80 C59.08127476 76.79115216 59.14063141 73.58438239 59.1875 70.375 C59.21263672 69.47136719 59.23777344 68.56773438 59.26367188 67.63671875 C59.3241502 62.11303177 58.60727068 58.94295066 56 54 C55.79402442 51.2811224 55.71051864 48.82358378 55.8125 46.125 C55.83280273 45.09246094 55.83280273 45.09246094 55.85351562 44.0390625 C55.8885163 42.35902999 55.94231046 40.6794065 56 39 C57.32 39 58.64 39 60 39 C60.04898438 39.89203125 60.09796875 40.7840625 60.1484375 41.703125 C60.26058594 43.45882812 60.26058594 43.45882812 60.375 45.25 C60.47941406 46.99023438 60.47941406 46.99023438 60.5859375 48.765625 C60.96732242 51.74474491 61.20611379 53.60815173 63 56 C65.67790463 56.83886169 68.1737941 56.81766414 71 57 C71.5625 58.9375 71.5625 58.9375 72 61 C71.67 61.33 71.34 61.66 71 62 C69.02 62 67.04 62 65 62 C65 67.28 65 72.56 65 78 C67.31 78 69.62 78 72 78 C72 79.32 72 80.64 72 82 C70.72125 82.12375 69.4425 82.2475 68.125 82.375 C64.65209064 82.69042399 64.65209064 82.69042399 62 85 C60.68 85 59.36 85 58 85 C57.505 86.98 57.505 86.98 57 89 C56.21625 89.0825 55.4325 89.165 54.625 89.25 C51.85250896 89.72806339 51.85250896 89.72806339 50.6875 92.0625 C50.460625 92.701875 50.23375 93.34125 50 94 C48.02 94 46.04 94 44 94 C43.773125 93.360625 43.54625 92.72125 43.3125 92.0625 C42.879375 91.381875 42.44625 90.70125 42 90 C41.175 89.835 40.35 89.67 39.5 89.5 C37 89 37 89 35.6875 87.125 C35 85 35 85 35 82 C32.58239124 82.11426509 30.16652782 82.24099661 27.75 82.375 C27.06808594 82.4059375 26.38617188 82.436875 25.68359375 82.46875 C20.49699512 82.70616396 20.49699512 82.70616396 16 85 C15.30367785 86.95365445 15.30367785 86.95365445 15.25 89.125 C15.1675 90.40375 15.085 91.6825 15 93 C13.02 93.495 13.02 93.495 11 94 C10.71125 92.865625 10.4225 91.73125 10.125 90.5625 C9.75375 89.386875 9.3825 88.21125 9 87 C8.34 86.67 7.68 86.34 7 86 C7.25 84.140625 7.25 84.140625 8 82 C15.59445587 76.30415809 26.0733307 77.62719247 35 78 C35 76.68 35 75.36 35 74 C31.535 74.495 31.535 74.495 28 75 C26.4375 73.375 26.4375 73.375 25 71 C25.2413865 67.98266875 25.64641521 65.70716958 27 63 C26.16855469 62.96261719 25.33710937 62.92523438 24.48046875 62.88671875 C23.39378906 62.82097656 22.30710938 62.75523438 21.1875 62.6875 C20.10855469 62.62949219 19.02960937 62.57148437 17.91796875 62.51171875 C14.74113849 61.95460394 13.93361989 61.47838586 12 59 C8.84677303 55.59783406 6.4609303 53.40200667 2 52 C2.78375 52.5775 3.5675 53.155 4.375 53.75 C6.80047244 55.82897637 7.85694417 57.09040333 9 60 C7 62 7 62 4.93701172 62.22705078 C3.69588623 62.21134033 3.69588623 62.21134033 2.4296875 62.1953125 C1.53378906 62.18886719 0.63789063 62.18242188 -0.28515625 62.17578125 C-1.22230469 62.15902344 -2.15945312 62.14226562 -3.125 62.125 C-4.06988281 62.11597656 -5.01476562 62.10695312 -5.98828125 62.09765625 C-8.32577292 62.07404522 -10.66276123 62.04111516 -13 62 C-13 62.66 -13 63.32 -13 64 C-8.05 64 -3.1 64 2 64 C1.67 65.32 1.34 66.64 1 68 C-5.27 68 -11.54 68 -18 68 C-18 68.66 -18 69.32 -18 70 C-11.4 70 -4.8 70 2 70 C2 71.32 2 72.64 2 74 C-2.95 74 -7.9 74 -13 74 C-13 74.66 -13 75.32 -13 76 C-8.38 76 -3.76 76 1 76 C1.33 77.32 1.66 78.64 2 80 C-2.95 80.495 -2.95 80.495 -8 81 C-4.04 81.33 -0.08 81.66 4 82 C4.33 83.32 4.66 84.64 5 86 C4 87 4 87 1.71484375 87.09765625 C0.79832031 87.08605469 -0.11820313 87.07445313 -1.0625 87.0625 C-2.44115234 87.04896484 -2.44115234 87.04896484 -3.84765625 87.03515625 C-4.91306641 87.01775391 -4.91306641 87.01775391 -6 87 C-6 89.31 -6 91.62 -6 94 C-7.32 94 -8.64 94 -10 94 C-10.29296875 90.97265625 -10.29296875 90.97265625 -10.5859375 87.9453125 C-10.86374749 85.77331755 -10.86374749 85.77331755 -13 84 C-13 82.68 -13 81.36 -13 80 C-14.32 79.67 -15.64 79.34 -17 79 C-17.12375 77.824375 -17.12375 77.824375 -17.25 76.625 C-17.72806339 73.85250896 -17.72806339 73.85250896 -20.0625 72.6875 C-20.701875 72.460625 -21.34125 72.23375 -22 72 C-22 70.02 -22 68.04 -22 66 C-21.360625 65.773125 -20.72125 65.54625 -20.0625 65.3125 C-19.381875 64.879375 -18.70125 64.44625 -18 64 C-17.835 63.175 -17.67 62.35 -17.5 61.5 C-17 59 -17 59 -15.328125 57.8515625 C-12.50253369 56.81804085 -10.25127883 56.80354098 -7.25 56.875 C-5.77273437 56.90207031 -5.77273437 56.90207031 -4.265625 56.9296875 C-3.51796875 56.95289063 -2.7703125 56.97609375 -2 57 C-2.33 54.69 -2.66 52.38 -3 50 C-1.375 48.4375 -1.375 48.4375 1 47 C4.01733125 47.2413865 6.29283042 47.64641521 9 49 C9.03738281 48.16855469 9.07476562 47.33710937 9.11328125 46.48046875 C9.17902344 45.39378906 9.24476562 44.30710938 9.3125 43.1875 C9.37050781 42.10855469 9.42851563 41.02960937 9.48828125 39.91796875 C10.04539606 36.74113849 10.52161414 35.93361989 13 34 C16.40216594 30.84677303 18.59799333 28.4609303 20 24 C19.4225 24.78375 18.845 25.5675 18.25 26.375 C16.17102363 28.80047244 14.90959667 29.85694417 12 31 C10 29 10 29 9.77294922 26.93701172 C9.78342285 26.10959473 9.79389648 25.28217773 9.8046875 24.4296875 C9.81113281 23.53378906 9.81757812 22.63789063 9.82421875 21.71484375 C9.84097656 20.77769531 9.85773437 19.84054688 9.875 18.875 C9.88402344 17.93011719 9.89304687 16.98523438 9.90234375 16.01171875 C9.92595478 13.67422708 9.95888484 11.33723877 10 9 C9.34 9 8.68 9 8 9 C8 13.95 8 18.9 8 24 C6.68 23.67 5.36 23.34 4 23 C4 16.73 4 10.46 4 4 C3.34 4 2.68 4 2 4 C2 10.6 2 17.2 2 24 C0.68 24 -0.64 24 -2 24 C-2 19.05 -2 14.1 -2 9 C-2.66 9 -3.32 9 -4 9 C-4 13.62 -4 18.24 -4 23 C-5.32 23.33 -6.64 23.66 -8 24 C-8.33 20.7 -8.66 17.4 -9 14 C-9.08127476 17.20884784 -9.14063141 20.41561761 -9.1875 23.625 C-9.21263672 24.52863281 -9.23777344 25.43226562 -9.26367188 26.36328125 C-9.3241502 31.88696823 -8.60727068 35.05704934 -6 40 C-5.79402442 42.7188776 -5.71051864 45.17641622 -5.8125 47.875 C-5.83280273 48.90753906 -5.83280273 48.90753906 -5.85351562 49.9609375 C-5.8885163 51.64097001 -5.94231046 53.3205935 -6 55 C-7.32 55 -8.64 55 -10 55 C-10.07347656 53.66195312 -10.07347656 53.66195312 -10.1484375 52.296875 C-10.26058594 50.54117188 -10.26058594 50.54117188 -10.375 48.75 C-10.44460938 47.58984375 -10.51421875 46.4296875 -10.5859375 45.234375 C-10.96732242 42.25525509 -11.20611379 40.39184827 -13 38 C-15.67790463 37.16113831 -18.1737941 37.18233586 -21 37 C-21.5625 35.0625 -21.5625 35.0625 -22 33 C-21.505 32.505 -21.505 32.505 -21 32 C-19.02 32 -17.04 32 -15 32 C-15 26.72 -15 21.44 -15 16 C-17.31 16 -19.62 16 -22 16 C-22 14.68 -22 13.36 -22 12 C-20.72125 11.87625 -19.4425 11.7525 -18.125 11.625 C-14.65209064 11.30957601 -14.65209064 11.30957601 -12 9 C-10.68 9 -9.36 9 -8 9 C-7.67 7.68 -7.34 6.36 -7 5 C-5.824375 4.87625 -5.824375 4.87625 -4.625 4.75 C-1.85250896 4.27193661 -1.85250896 4.27193661 -0.6875 1.9375 C-0.460625 1.298125 -0.23375 0.65875 0 0 Z " fill="#EEEEEE" transform="translate(25,3)"/>
</svg>
