<?xml version="1.0" encoding="UTF-8"?>
<svg version="1.1" xmlns="http://www.w3.org/2000/svg" width="100" height="100">
<path d="M0 0 C5.11762818 2.65358498 8.17705942 5.53117826 10 11 C10.06802967 12.72795352 10.08495645 14.45835365 10.0625 16.1875 C10.05347656 17.08855469 10.04445313 17.98960938 10.03515625 18.91796875 C10.02355469 19.60503906 10.01195313 20.29210937 10 21 C8.68 21.33 7.36 21.66 6 22 C5.90203125 21.18015625 5.8040625 20.3603125 5.703125 19.515625 C5.55359375 18.43796875 5.4040625 17.3603125 5.25 16.25 C5.11078125 15.18265625 4.9715625 14.1153125 4.828125 13.015625 C3.87347708 9.5392656 2.81830266 8.20002785 0 6 C-3.93411967 4.92705827 -6.05546078 4.58020479 -9.8125 6.25 C-12.2102573 7.98691532 -12.2102573 7.98691532 -14 11 C-14.24187651 13.74518321 -14.24187651 13.74518321 -14.125 16.6875 C-14.10695313 17.68136719 -14.08890625 18.67523437 -14.0703125 19.69921875 C-14.04710938 20.45847656 -14.02390625 21.21773437 -14 22 C-13.67 20.35 -13.34 18.7 -13 17 C-11.68 17 -10.36 17 -9 17 C-7.25 19 -7.25 19 -6 21 C-4.68 20.67 -3.36 20.34 -2 20 C-2 18.35 -2 16.7 -2 15 C-5.57644848 13.7619986 -8.33694766 14.25073929 -12 15 C-12.33 13.68 -12.66 12.36 -13 11 C-7.77348066 7.96132597 -7.77348066 7.96132597 -4.5 8.125 C-1.51627861 9.16930249 1.21461395 10.51014235 4 12 C3.94199219 12.68707031 3.88398437 13.37414063 3.82421875 14.08203125 C3.68840084 16.7945089 3.63764993 19.30638565 4 22 C6.28504837 23.97127988 6.28504837 23.97127988 9 25 C11.17751655 28.22213598 11.21596654 30.9294055 11.125 34.75 C11.10695312 35.73484375 11.08890625 36.7196875 11.0703125 37.734375 C11.04710937 38.48203125 11.02390625 39.2296875 11 40 C9.02 40 7.04 40 5 40 C5.33 42.97 5.66 45.94 6 49 C6.66 46.69 7.32 44.38 8 42 C8.99 42 9.98 42 11 42 C11.05395478 43.62463842 11.09277195 45.24978541 11.125 46.875 C11.14820313 47.77992187 11.17140625 48.68484375 11.1953125 49.6171875 C11 52 11 52 9 54 C8.01 54 7.02 54 6 54 C6.020625 55.051875 6.04125 56.10375 6.0625 57.1875 C6 61 6 61 5.375 63.75 C4.69032666 66.27642621 4.69032666 66.27642621 7 69 C7.1875 72.125 7.1875 72.125 7 75 C6 76 6 76 3.86694336 76.11352539 C2.95050049 76.10828857 2.03405762 76.10305176 1.08984375 76.09765625 C0.10048828 76.09443359 -0.88886719 76.09121094 -1.90820312 76.08789062 C-2.94912109 76.07951172 -3.99003906 76.07113281 -5.0625 76.0625 C-6.10728516 76.05798828 -7.15207031 76.05347656 -8.22851562 76.04882812 C-10.8190666 76.03699913 -13.40950559 76.02051689 -16 76 C-16.1953125 69.9453125 -16.1953125 69.9453125 -16 68 C-15.01 67.01 -15.01 67.01 -14 66 C-13.3574765 63.93125966 -13.3574765 63.93125966 -13 62 C-13.66 62 -14.32 62 -15 62 C-15 59.36 -15 56.72 -15 54 C-16.2065625 53.814375 -16.2065625 53.814375 -17.4375 53.625 C-18.283125 53.41875 -19.12875 53.2125 -20 53 C-21.21445591 50.57108818 -21.12924198 48.99280557 -21.1328125 46.28125 C-21.13410156 45.34925781 -21.13539062 44.41726562 -21.13671875 43.45703125 C-21.13285156 42.48121094 -21.12898438 41.50539062 -21.125 40.5 C-21.12886719 39.52417969 -21.13273437 38.54835937 -21.13671875 37.54296875 C-21.13542969 36.61097656 -21.13414063 35.67898437 -21.1328125 34.71875 C-21.13168457 33.86216797 -21.13055664 33.00558594 -21.12939453 32.12304688 C-21 30 -21 30 -20 28 C-19.89584347 26.6224806 -19.84491735 25.24067143 -19.82421875 23.859375 C-19.78844727 22.62380859 -19.78844727 22.62380859 -19.75195312 21.36328125 C-19.70937572 19.63696095 -19.67791469 17.91032653 -19.65820312 16.18359375 C-19.47368453 10.6652003 -18.69807997 7.3642782 -15 3 C-10.27896221 -0.2937473 -5.59818552 -0.91296574 0 0 Z M-14.0625 27.0625 C-16.79211246 29.79211246 -16.71671684 32.2464981 -17 36 C-16.34 36 -15.68 36 -15 36 C-14.896875 35.360625 -14.79375 34.72125 -14.6875 34.0625 C-14.460625 33.381875 -14.23375 32.70125 -14 32 C-13.01 31.67 -12.02 31.34 -11 31 C-11 35.29 -11 39.58 -11 44 C-7.7 44 -4.4 44 -1 44 C-1.33 44.99 -1.66 45.98 -2 47 C-4.97 47.33 -7.94 47.66 -11 48 C-11 51.3 -11 54.6 -11 58 C-6.71 58 -2.42 58 2 58 C2 49.42 2 40.84 2 32 C2.66 32 3.32 32 4 32 C4.33 33.32 4.66 34.64 5 36 C5.66 36 6.32 36 7 36 C7.3327958 32.33924624 7.46170299 30.60499012 5.1875 27.625 C3.05279952 25.701838 3.05279952 25.701838 0 26 C-1.71711243 28.44496043 -1.71711243 28.44496043 -3 31 C-5.87090587 30.60401298 -6.78915127 30.2676157 -8.625 27.9375 C-9.07875 27.298125 -9.5325 26.65875 -10 26 C-12.09035663 25.8473478 -12.09035663 25.8473478 -14.0625 27.0625 Z M-17 40 C-17 42.97 -17 45.94 -17 49 C-16.01 49.495 -16.01 49.495 -15 50 C-15 46.7 -15 43.4 -15 40 C-15.66 40 -16.32 40 -17 40 Z M-9 62 C-9 63.32 -9 64.64 -9 66 C-8.34 66 -7.68 66 -7 66 C-7 64.68 -7 63.36 -7 62 C-7.66 62 -8.32 62 -9 62 Z M-3 62 C-3 63.32 -3 64.64 -3 66 C-2.01 66 -1.02 66 0 66 C0 64.68 0 63.36 0 62 C-0.99 62 -1.98 62 -3 62 Z M-12 70 C-12 70.66 -12 71.32 -12 72 C-10.35 72 -8.7 72 -7 72 C-7 71.34 -7 70.68 -7 70 C-8.65 70 -10.3 70 -12 70 Z M-3 70 C-3 70.66 -3 71.32 -3 72 C-1.02 72 0.96 72 3 72 C2.67 71.34 2.34 70.68 2 70 C0.35 70 -1.3 70 -3 70 Z " fill="#EEEEEE" transform="translate(86,9)"/>
<path d="M0 0 C3.77393899 0.07361389 5.54590046 0.2669473 8.9375 2.0625 C11.41539313 6.5910633 10.75794849 10.27274848 10.53515625 15.33984375 C10.48904103 18.32302693 10.48904103 18.32302693 11.99609375 20.19140625 C13.82122107 21.62972683 13.82122107 21.62972683 16.75 23.375 C18.92661852 26.60412814 18.96622228 29.29366405 18.875 33.125 C18.85695312 34.10984375 18.83890625 35.0946875 18.8203125 36.109375 C18.79710937 36.85703125 18.77390625 37.6046875 18.75 38.375 C17.43 38.375 16.11 38.375 14.75 38.375 C14.66363281 37.54355469 14.57726562 36.71210937 14.48828125 35.85546875 C14.34777344 34.76878906 14.20726563 33.68210938 14.0625 32.5625 C13.93488281 31.48355469 13.80726562 30.40460937 13.67578125 29.29296875 C13.00077543 26.16799348 13.00077543 26.16799348 10.16796875 24.48828125 C9.37003906 24.12089844 8.57210938 23.75351562 7.75 23.375 C6.42717852 27.78440492 7.00288381 31.68947158 7.59375 36.16796875 C7.75 38.375 7.75 38.375 6.75 40.375 C7.41 40.705 8.07 41.035 8.75 41.375 C8.75 37.085 8.75 32.795 8.75 28.375 C10.07 28.705 11.39 29.035 12.75 29.375 C12.75 33.335 12.75 37.295 12.75 41.375 C14.73 41.375 16.71 41.375 18.75 41.375 C19.11567164 47.835199 19.11567164 47.835199 17.4375 50.3125 C15.75 51.375 15.75 51.375 12.75 51.375 C12.75 55.335 12.75 59.295 12.75 63.375 C14.07 64.035 15.39 64.695 16.75 65.375 C16.75 68.015 16.75 70.655 16.75 73.375 C12.78069011 73.39965881 8.81140966 73.41784023 4.84204102 73.42993164 C3.49079614 73.43497057 2.13955674 73.44180177 0.78833008 73.45043945 C-1.15020434 73.46252419 -3.088778 73.46769828 -5.02734375 73.47265625 C-6.77905884 73.48051147 -6.77905884 73.48051147 -8.56616211 73.48852539 C-11.25 73.375 -11.25 73.375 -12.25 72.375 C-12.51293056 68.34339809 -12.54404844 66.81607266 -10.25 63.375 C-6.55406029 62.95879057 -2.97880913 63.24492526 0.75 63.375 C0.75 58.095 0.75 52.815 0.75 47.375 C2.07 47.705 3.39 48.035 4.75 48.375 C4.75 53.325 4.75 58.275 4.75 63.375 C6.07 63.375 7.39 63.375 8.75 63.375 C8.75 57.435 8.75 51.495 8.75 45.375 C4.79 45.375 0.83 45.375 -3.25 45.375 C-3.25 50.325 -3.25 55.275 -3.25 60.375 C-4.57 60.375 -5.89 60.375 -7.25 60.375 C-7.25 57.405 -7.25 54.435 -7.25 51.375 C-8.054375 51.230625 -8.85875 51.08625 -9.6875 50.9375 C-12.25 50.375 -12.25 50.375 -13.25 49.375 C-13.53106102 45.63262998 -13.48185411 41.87666221 -13.5 38.125 C-13.520625 37.07441406 -13.54125 36.02382813 -13.5625 34.94140625 C-13.56765625 33.92433594 -13.5728125 32.90726563 -13.578125 31.859375 C-13.5874707 30.92834961 -13.59681641 29.99732422 -13.60644531 29.03808594 C-13.17847469 25.84061774 -12.12752939 23.97631413 -10.25 21.375 C-8.0625 20.0625 -8.0625 20.0625 -6.25 19.375 C-6.25 17.725 -6.25 16.075 -6.25 14.375 C-4.93 14.045 -3.61 13.715 -2.25 13.375 C-2.0025 14.014375 -1.755 14.65375 -1.5 15.3125 C-0.42967477 17.52504327 -0.42967477 17.52504327 1.75 18.25 C2.41 18.29125 3.07 18.3325 3.75 18.375 C6.3154594 15.8095406 6.29046087 13.89813332 6.75 10.375 C5.89535156 10.38660156 5.04070313 10.39820313 4.16015625 10.41015625 C3.05542969 10.41917969 1.95070313 10.42820312 0.8125 10.4375 C-0.28964844 10.44910156 -1.39179688 10.46070313 -2.52734375 10.47265625 C-5.25 10.375 -5.25 10.375 -6.25 9.375 C-6.3828125 7.5625 -6.3828125 7.5625 -6.375 5.375 C-6.37757812 4.653125 -6.38015625 3.93125 -6.3828125 3.1875 C-6.10199735 -0.64480085 -3.25139412 0.11301637 0 0 Z M-1.25 4.375 C-1.25 5.035 -1.25 5.695 -1.25 6.375 C1.06 6.375 3.37 6.375 5.75 6.375 C3.91116119 4.08771266 3.91116119 4.08771266 1.125 4.25 C-0.050625 4.311875 -0.050625 4.311875 -1.25 4.375 Z M-7.421875 24.921875 C-9.91707534 28.27013528 -9.6528019 30.49934859 -9.5 34.625 C-9.46390625 35.88828125 -9.4278125 37.1515625 -9.390625 38.453125 C-9.34421875 39.41734375 -9.2978125 40.3815625 -9.25 41.375 C-8.59 41.375 -7.93 41.375 -7.25 41.375 C-6.92 37.415 -6.59 33.455 -6.25 29.375 C-5.59 29.375 -4.93 29.375 -4.25 29.375 C-3.92 33.335 -3.59 37.295 -3.25 41.375 C-2.26 41.045 -1.27 40.715 -0.25 40.375 C-0.58 40.045 -0.91 39.715 -1.25 39.375 C-1.32279623 36.07187103 -1.24609386 32.7797915 -1.1875 29.4765625 C-1.09711854 26.33856035 -1.09711854 26.33856035 -2.25 23.375 C-5.28714315 23.08493549 -5.28714315 23.08493549 -7.421875 24.921875 Z M1.75 32.375 C1.75 34.025 1.75 35.675 1.75 37.375 C2.41 36.715 3.07 36.055 3.75 35.375 C3.09 34.385 2.43 33.395 1.75 32.375 Z M-9.25 45.375 C-8.92 46.035 -8.59 46.695 -8.25 47.375 C-7.92 46.715 -7.59 46.055 -7.25 45.375 C-7.91 45.375 -8.57 45.375 -9.25 45.375 Z M12.75 45.375 C13.08 46.035 13.41 46.695 13.75 47.375 C14.08 46.715 14.41 46.055 14.75 45.375 C14.09 45.375 13.43 45.375 12.75 45.375 Z M-8.25 67.375 C-8.25 68.035 -8.25 68.695 -8.25 69.375 C-5.28 69.375 -2.31 69.375 0.75 69.375 C0.75 68.715 0.75 68.055 0.75 67.375 C-2.22 67.375 -5.19 67.375 -8.25 67.375 Z M4.75 67.375 C4.75 68.035 4.75 68.695 4.75 69.375 C7.39 69.375 10.03 69.375 12.75 69.375 C12.75 68.715 12.75 68.055 12.75 67.375 C10.11 67.375 7.47 67.375 4.75 67.375 Z " fill="#EEEEEE" transform="translate(16.25,11.625)"/>
<path d="M0 0 C1.19496094 -0.00386719 1.19496094 -0.00386719 2.4140625 -0.0078125 C3.24679688 -0.00007813 4.07953125 0.00765625 4.9375 0.015625 C5.77023438 0.00789063 6.60296875 0.00015625 7.4609375 -0.0078125 C8.25757813 -0.00523438 9.05421875 -0.00265625 9.875 0 C10.60589844 0.00225586 11.33679688 0.00451172 12.08984375 0.00683594 C13.9375 0.265625 13.9375 0.265625 15.9375 2.265625 C16.1875 5.265625 16.1875 5.265625 15.9375 8.265625 C13.57181778 10.63130722 13.08517774 10.52134204 9.875 10.53125 C8.68003906 10.53511719 8.68003906 10.53511719 7.4609375 10.5390625 C6.62820312 10.53132813 5.79546875 10.52359375 4.9375 10.515625 C4.10476562 10.52335937 3.27203125 10.53109375 2.4140625 10.5390625 C1.61742187 10.53648438 0.82078125 10.53390625 0 10.53125 C-0.73089844 10.52899414 -1.46179687 10.52673828 -2.21484375 10.52441406 C-4.0625 10.265625 -4.0625 10.265625 -6.0625 8.265625 C-6.3125 5.265625 -6.3125 5.265625 -6.0625 2.265625 C-3.69681778 -0.10005722 -3.21017774 0.00990796 0 0 Z M-2.0625 4.265625 C-2.0625 4.925625 -2.0625 5.585625 -2.0625 6.265625 C2.5575 6.265625 7.1775 6.265625 11.9375 6.265625 C11.9375 5.605625 11.9375 4.945625 11.9375 4.265625 C7.3175 4.265625 2.6975 4.265625 -2.0625 4.265625 Z " fill="#EEEEEE" transform="translate(45.0625,50.734375)"/>
<path d="M0 0 C1.19496094 -0.00386719 1.19496094 -0.00386719 2.4140625 -0.0078125 C3.24679688 -0.00007813 4.07953125 0.00765625 4.9375 0.015625 C5.77023438 0.00789063 6.60296875 0.00015625 7.4609375 -0.0078125 C8.25757813 -0.00523438 9.05421875 -0.00265625 9.875 0 C10.60589844 0.00225586 11.33679688 0.00451172 12.08984375 0.00683594 C13.9375 0.265625 13.9375 0.265625 15.9375 2.265625 C16.1875 5.265625 16.1875 5.265625 15.9375 8.265625 C13.57181778 10.63130722 13.08517774 10.52134204 9.875 10.53125 C8.68003906 10.53511719 8.68003906 10.53511719 7.4609375 10.5390625 C6.62820312 10.53132813 5.79546875 10.52359375 4.9375 10.515625 C4.10476562 10.52335937 3.27203125 10.53109375 2.4140625 10.5390625 C1.61742187 10.53648438 0.82078125 10.53390625 0 10.53125 C-0.73089844 10.52899414 -1.46179687 10.52673828 -2.21484375 10.52441406 C-4.0625 10.265625 -4.0625 10.265625 -6.0625 8.265625 C-6.3125 5.265625 -6.3125 5.265625 -6.0625 2.265625 C-3.69681778 -0.10005722 -3.21017774 0.00990796 0 0 Z M-2.0625 4.265625 C-2.0625 4.925625 -2.0625 5.585625 -2.0625 6.265625 C2.5575 6.265625 7.1775 6.265625 11.9375 6.265625 C11.9375 5.605625 11.9375 4.945625 11.9375 4.265625 C7.3175 4.265625 2.6975 4.265625 -2.0625 4.265625 Z " fill="#EEEEEE" transform="translate(45.0625,38.734375)"/>
<path d="M0 0 C1.32 0 2.64 0 4 0 C4 1.32 4 2.64 4 4 C2.68 3.67 1.36 3.34 0 3 C0 2.01 0 1.02 0 0 Z " fill="#EFEFEF" transform="translate(79,42)"/>
<path d="M0 0 C0.99 0 1.98 0 3 0 C3 1.32 3 2.64 3 4 C1.68 3.67 0.36 3.34 -1 3 C-0.67 2.01 -0.34 1.02 0 0 Z " fill="#EEEEEE" transform="translate(80,48)"/>
</svg>
