<svg xmlns="http://www.w3.org/2000/svg" xmlns:xlink="http://www.w3.org/1999/xlink" viewBox="0,0,255.99185,255.99185" width="100px" height="100px"><g fill="#023e8a" fill-rule="nonzero" stroke="none" stroke-width="1" stroke-linecap="butt" stroke-linejoin="miter" stroke-miterlimit="10" stroke-dasharray="" stroke-dashoffset="0" font-family="none" font-weight="none" font-size="none" text-anchor="none" style="mix-blend-mode: normal"><g transform="scale(2.56,2.56)"><circle cx="45.493" cy="23.493" r="3.5"></circle><circle cx="54.5" cy="76.5" r="3.5"></circle><path d="M53.406,87h-9.906c-7.34,0 -13.396,-5.771 -13.5,-12.864v-5.135l-3.874,0.003c-7.115,0 -13.126,-6.075 -13.126,-13.266v-9.738c0,-8.103 6.725,-14.682 15.31,-14.977l3.69,-0.01v-4.138c0,-7.65 6.617,-13.875 14.75,-13.875h9.905c3.694,0 7.275,1.468 9.826,4.027c2.279,2.288 3.529,5.254 3.519,8.352v5.609l3.754,0.034c7.181,0.002 13.246,5.95 13.246,12.99v9.738c0,8.117 -6.924,14.96 -15.434,15.253l-3.574,-0.002l0.008,4.111c0,7.659 -6.547,13.888 -14.594,13.888zM31,67c0.265,0 0.52,0.105 0.707,0.293c0.187,0.188 0.293,0.441 0.293,0.707v6.121c0.088,5.992 5.247,10.879 11.5,10.879h9.906c6.945,0 12.594,-5.332 12.594,-11.886l-0.01,-5.112c-0.001,-0.266 0.104,-0.521 0.293,-0.709c0.188,-0.188 0.442,-0.293 0.707,-0.293h0.001l4.542,0.004c7.41,-0.256 13.467,-6.202 13.467,-13.254v-9.738c0,-5.957 -5.152,-10.989 -11.25,-10.989c-0.003,0 -0.006,0 -0.009,0l-4.75,-0.043c-0.549,-0.005 -0.991,-0.451 -0.991,-1v-6.604c0.009,-2.565 -1.033,-5.027 -2.936,-6.936c-2.177,-2.186 -5.243,-3.44 -8.409,-3.44h-9.905c-7.03,0 -12.75,5.327 -12.75,11.875v5.135c0,0.551 -0.446,0.998 -0.997,1l-4.656,0.013c-7.471,0.257 -13.347,5.958 -13.347,12.977v9.738c0,6.001 5.198,11.266 11.125,11.266l4.875,-0.004z"></path><path d="M52.375,33h-19.5c-0.276,0 -0.5,-0.224 -0.5,-0.5c0,-0.276 0.224,-0.5 0.5,-0.5h19.5c0.276,0 0.5,0.224 0.5,0.5c0,0.276 -0.224,0.5 -0.5,0.5z"></path><path d="M67,68h-19.5c-0.276,0 -0.5,-0.224 -0.5,-0.5c0,-0.276 0.224,-0.5 0.5,-0.5h19.5c0.276,0 0.5,0.224 0.5,0.5c0,0.276 -0.224,0.5 -0.5,0.5z"></path><path d="M67,65h-12.5c-0.276,0 -0.5,-0.224 -0.5,-0.5c0,-0.276 0.224,-0.5 0.5,-0.5h12.5c0.276,0 0.5,0.224 0.5,0.5c0,0.276 -0.224,0.5 -0.5,0.5z"></path><path d="M51.5,65h-4c-0.276,0 -0.5,-0.224 -0.5,-0.5c0,-0.276 0.224,-0.5 0.5,-0.5h4c0.276,0 0.5,0.224 0.5,0.5c0,0.276 -0.224,0.5 -0.5,0.5z"></path><path d="M45.5,36h-12.5c-0.276,0 -0.5,-0.224 -0.5,-0.5c0,-0.276 0.224,-0.5 0.5,-0.5h12.5c0.276,0 0.5,0.224 0.5,0.5c0,0.276 -0.224,0.5 -0.5,0.5z"></path><path d="M52.5,36h-4c-0.276,0 -0.5,-0.224 -0.5,-0.5c0,-0.276 0.224,-0.5 0.5,-0.5h4c0.276,0 0.5,0.224 0.5,0.5c0,0.276 -0.224,0.5 -0.5,0.5z"></path><path d="M68.112,42.125c-0.044,0 -0.09,-0.006 -0.135,-0.019c-0.266,-0.074 -0.421,-0.35 -0.347,-0.616c0.246,-0.878 0.37,-1.791 0.37,-2.716v-6.649c0,-0.276 0.224,-0.5 0.5,-0.5c0.276,0 0.5,0.224 0.5,0.5v6.649c0,1.016 -0.137,2.02 -0.406,2.985c-0.062,0.221 -0.263,0.366 -0.482,0.366z"></path><path d="M57.875,50c-0.276,0 -0.5,-0.224 -0.5,-0.5c0,-0.276 0.224,-0.5 0.5,-0.5c3.304,0 6.54,-1.782 8.446,-4.651c0.153,-0.232 0.465,-0.292 0.692,-0.14c0.23,0.152 0.293,0.463 0.14,0.692c-2.089,3.146 -5.644,5.099 -9.278,5.099z"></path><path d="M55.875,50h-2.625c-0.276,0 -0.5,-0.224 -0.5,-0.5c0,-0.276 0.224,-0.5 0.5,-0.5h2.625c0.276,0 0.5,0.224 0.5,0.5c0,0.276 -0.224,0.5 -0.5,0.5z"></path><path d="M31.5,74.625c-0.276,0 -0.5,-0.224 -0.5,-0.5v-13.209c0.105,-6.574 5.659,-11.916 12.379,-11.916h6.996c0.276,0 0.5,0.224 0.5,0.5c0,0.276 -0.224,0.5 -0.5,0.5h-6.996c-6.178,0 -11.282,4.9 -11.379,10.924v13.201c0,0.276 -0.224,0.5 -0.5,0.5z"></path></g></g></svg>