<svg xmlns="http://www.w3.org/2000/svg" xmlns:xlink="http://www.w3.org/1999/xlink" viewBox="0,0,255.99185,255.99185" width="100px" height="100px"><g fill="#023e8a" fill-rule="nonzero" stroke="none" stroke-width="1" stroke-linecap="butt" stroke-linejoin="miter" stroke-miterlimit="10" stroke-dasharray="" stroke-dashoffset="0" font-family="none" font-weight="none" font-size="none" text-anchor="none" style="mix-blend-mode: normal"><g transform="scale(2.56,2.56)"><path d="M61.04492,12.45703c-3.1,-0.106 -6.15313,1.02242 -8.45312,3.10742c-0.848,-0.13 -1.7197,-0.21681 -2.5957,-0.25781c-13.166,-0.635 -20.94187,10.49575 -22.54687,21.09375c-0.306,1.839 -1.05255,8.20342 1.68945,14.85742c-2.278,2.022 -3.72214,4.86411 -3.99414,7.91211c-0.047,0.522 -0.11483,1.6163 -0.04883,3.0293v15.80078c0,6.617 5.383,12 12,12c3.574,0 6.99077,-1.62223 9.25977,-4.36523c2.251,0.314 4.65639,0.39147 7.15039,0.23047c9.981,-0.647 15.44262,-5.00397 18.26563,-8.54297c3.207,-4.02 4.85134,-9.46186 4.40234,-14.50586c-0.164,-4.471 -2.29491,-8.93962 -5.87891,-12.39062c1.386,-1.999 2.14063,-4.39289 2.14063,-6.83789c0,-11.438 0.19189,-18.03 0.21289,-18.75c0.213,-6.614 -4.99252,-12.16886 -11.60352,-12.38086zM60.97852,14.45313c5.51,0.178 9.84987,4.80517 9.67188,10.32617c-0.022,0.717 -0.21484,7.33764 -0.21484,18.80664c0,2.301 -0.80281,4.54617 -2.25781,6.32617c-0.34,0.416 -0.29067,1.02877 0.11133,1.38477c5.092,4.496 5.81267,9.60453 5.88867,11.64453c0.408,4.596 -1.0767,9.50386 -3.9707,13.13086c-2.573,3.225 -7.58008,7.19392 -16.83008,7.79492c-2.566,0.167 -5.02002,0.06713 -7.29102,-0.29688c-0.365,-0.058 -0.73894,0.09162 -0.96094,0.39063c-1.908,2.566 -4.8353,4.03906 -8.0293,4.03906c-5.514,0 -10,-4.486 -10,-10l-0.00195,-15.84766c-0.063,-1.341 -0.00098,-2.33269 0.04102,-2.80469c0.246,-2.756 1.64208,-5.31177 3.83008,-7.00977c0.364,-0.283 0.48783,-0.77822 0.29883,-1.19922c-2.868,-6.392 -2.13484,-12.64483 -1.83984,-14.42383c1.439,-9.489 8.13858,-19.43359 19.51758,-19.43359c0.316,0 0.63694,0.00844 0.96094,0.02344c0.965,0.044 1.9208,0.14855 2.8418,0.31055c0.318,0.056 0.64695,-0.04544 0.87695,-0.27344c1.947,-1.926 4.60242,-2.96167 7.35742,-2.88867zM60.74414,19.49805c-0.779,-0.038 -1.52042,0.22758 -2.10742,0.76758c-0.603,0.555 -0.96142,1.34078 -0.98242,2.17578c-0.005,0.204 -0.04675,1.97267 -0.09375,4.88867c-2.097,-1.864 -4.78114,-2.88316 -7.99414,-3.03516c-8.862,-0.449 -12.51866,8.64075 -13.22266,13.46875c-0.053,0.296 -1.26048,7.31753 2.72852,13.01953c2.442,3.49 6.19906,5.69288 11.16406,6.54688c9.965,1.712 10.86445,5.47561 10.93945,5.97461c-0.027,0.217 -0.00642,0.36044 0.01758,0.52344l0.01758,0.10547c0.012,0.091 0.28483,2.25422 -1.20117,4.07422c-1.372,1.682 -3.88856,2.65277 -7.47656,2.88477c-4.465,0.292 -7.77694,-0.62103 -9.83594,-2.70703c-2.047,-2.078 -2.50856,-4.982 -2.60156,-6.5v-1.44922c0,-1.608 -1.25928,-2.92509 -2.86328,-2.99609c-1.575,-0.083 -2.982,1.14252 -3.125,2.72852c-0.007,0.077 -0.06672,0.78666 -0.01172,1.84766v0.30664c0,0.276 0.224,0.5 0.5,0.5c0.276,0 0.5,-0.224 0.5,-0.5l-0.00195,-0.33008c-0.053,-1.035 0.00677,-1.70442 0.00977,-1.73242c0.096,-1.057 1.00508,-1.86731 2.08008,-1.82031c1.071,0.048 1.91211,0.92605 1.91211,1.99805v1.47852c0.102,1.688 0.61367,4.86283 2.88867,7.17383c2.004,2.032 5.02147,3.05664 8.98047,3.05664c0.528,0 1.07277,-0.01859 1.63477,-0.05859c3.877,-0.252 6.62955,-1.345 8.18555,-3.25c1.757,-2.154 1.43102,-4.7328 1.41602,-4.8418l-0.01758,-0.11914c-0.023,-0.15 -0.02777,-0.18206 -0.00977,-0.28906c0.007,-0.041 0.00791,-0.08105 0.00391,-0.12305c-0.073,-0.83 -0.98053,-5.06983 -11.76953,-6.92383c-4.694,-0.807 -8.23163,-2.86977 -10.51562,-6.13477c-3.754,-5.363 -2.61455,-11.9872 -2.56055,-12.2832c0.646,-4.437 3.91306,-12.64453 11.66406,-12.64453c0.172,0 0.34644,0.00372 0.52344,0.01172c3.391,0.162 6.1353,1.35673 8.1543,3.55273c0.14,0.15 0.35787,0.20291 0.54688,0.12891c0.191,-0.072 0.31927,-0.25498 0.32227,-0.45898c0.052,-3.603 0.10533,-5.81741 0.11133,-6.06641c0.013,-0.546 0.2542,-1.07231 0.6582,-1.44531c0.387,-0.356 0.88063,-0.53391 1.39063,-0.50391c0.534,0.013 1.03044,0.23309 1.39844,0.62109c0.368,0.387 0.56478,0.89373 0.55078,1.42773c-0.001,0.057 -0.15608,6.26227 -0.20508,15.57227c-0.001,0.276 0.22109,0.49995 0.49609,0.50195h0.00391c0.275,0 0.499,-0.22109 0.5,-0.49609c0.049,-9.3 0.20308,-15.49373 0.20508,-15.55273c0.021,-0.801 -0.27317,-1.56158 -0.82617,-2.14258c-0.552,-0.581 -1.29803,-0.91264 -2.08203,-0.93164zM48.73242,29.28711c-6.04824,0.24061 -7.39597,8.92586 -7.45312,9.29883c-0.022,0.131 -0.52663,3.23364 0.48438,6.43164c1.281,4.06 4.41922,6.54372 9.32422,7.38672c13.849,2.38 15.05175,8.97333 15.09375,10.98633c0.118,1.003 0.30244,4.52236 -2.22656,7.69336c-2.28,2.856 -6.0117,4.47078 -11.0957,4.80078c-5.497,0.353 -9.8495,-0.80608 -12.9375,-3.45508c-0.147,-0.128 -0.35716,-0.15722 -0.53516,-0.07422c-0.178,0.081 -0.29102,0.26008 -0.29102,0.45508v5.18945c0,1.103 -0.897,2 -2,2c-1.103,0 -2,-0.897 -2,-2v-7.25c0,-0.276 -0.224,-0.5 -0.5,-0.5c-0.276,0 -0.5,0.224 -0.5,0.5v7.25c0,1.654 1.346,3 3,3c1.654,0 2.99995,-1.346 3.00195,-3v-4.1543c3.22,2.359 7.52412,3.37906 12.82813,3.03906c5.376,-0.35 9.3505,-2.09274 11.8125,-5.17773c2.771,-3.473 2.56545,-7.33276 2.43945,-8.38477c-0.043,-2.158 -1.31692,-9.39134 -15.91992,-11.90234c-4.507,-0.773 -7.38101,-3.03012 -8.54102,-6.70312c-0.938,-2.972 -0.47217,-5.84266 -0.45117,-5.97266c0.054,-0.356 1.35453,-8.70008 7.01953,-8.45508c6.274,0.298 7.44397,6.60747 8.16797,13.60547c0.164,1.596 1.54067,2.7635 3.13867,2.6875c1.595,-0.083 2.8457,-1.39909 2.8457,-2.99609l0.00195,-2.20898c0,-0.276 -0.225,-0.50195 -0.5,-0.50195c-0.275,0 -0.5,0.22305 -0.5,0.49805l-0.00195,2.21289c0,1.064 -0.83263,1.94109 -1.89062,1.99609c-1.119,0.059 -1.99161,-0.72702 -2.09961,-1.79102c-0.77,-7.449 -2.04823,-14.164 -9.11523,-14.5c-0.205,-0.01037 -0.4045,-0.01167 -0.59961,-0.00391zM34.5957,65.125c-0.276,0 -0.5,0.224 -0.5,0.5v3.125c0,0.276 0.224,0.5 0.5,0.5c0.276,0 0.5,-0.224 0.5,-0.5v-3.125c0,-0.276 -0.224,-0.5 -0.5,-0.5z"></path></g></g></svg>