<svg xmlns="http://www.w3.org/2000/svg" xmlns:xlink="http://www.w3.org/1999/xlink" viewBox="0,0,255.99185,255.99185" width="100px" height="100px"><g fill="#023e8a" fill-rule="nonzero" stroke="none" stroke-width="1" stroke-linecap="butt" stroke-linejoin="miter" stroke-miterlimit="10" stroke-dasharray="" stroke-dashoffset="0" font-family="none" font-weight="none" font-size="none" text-anchor="none" style="mix-blend-mode: normal"><g transform="scale(2.56,2.56)"><path d="M29,17c-6.61547,0 -12,5.38453 -12,12v42c0,6.61547 5.38453,12 12,12h42c6.61547,0 12,-5.38453 12,-12v-42c0,-6.61547 -5.38453,-12 -12,-12zM29,19h42c5.53453,0 10,4.46547 10,10v42c0,5.53453 -4.46547,10 -10,10h-42c-5.53453,0 -10,-4.46547 -10,-10v-42c0,-5.53453 4.46547,-10 10,-10zM53.5,22c-0.18032,-0.00255 -0.34804,0.09219 -0.43894,0.24794c-0.0909,0.15575 -0.0909,0.34838 0,0.50413c0.0909,0.15575 0.25863,0.25049 0.43894,0.24794h1c0.18032,0.00255 0.34804,-0.09219 0.43894,-0.24794c0.0909,-0.15575 0.0909,-0.34838 0,-0.50413c-0.0909,-0.15575 -0.25863,-0.25049 -0.43894,-0.24794zM57.5,22c-0.18032,-0.00255 -0.34804,0.09219 -0.43894,0.24794c-0.0909,0.15575 -0.0909,0.34838 0,0.50413c0.0909,0.15575 0.25863,0.25049 0.43894,0.24794h3c0.18032,0.00255 0.34804,-0.09219 0.43894,-0.24794c0.0909,-0.15575 0.0909,-0.34838 0,-0.50413c-0.0909,-0.15575 -0.25863,-0.25049 -0.43894,-0.24794zM63.5,22c-0.18032,-0.00255 -0.34804,0.09219 -0.43894,0.24794c-0.0909,0.15575 -0.0909,0.34838 0,0.50413c0.0909,0.15575 0.25863,0.25049 0.43894,0.24794h3c5.80477,0 10.5,4.69523 10.5,10.5v33c0,5.80477 -4.69523,10.5 -10.5,10.5h-33c-5.80477,0 -10.5,-4.69523 -10.5,-10.5v-11c0.00255,-0.18032 -0.09219,-0.34804 -0.24794,-0.43894c-0.15575,-0.0909 -0.34838,-0.0909 -0.50413,0c-0.15575,0.0909 -0.25049,0.25863 -0.24794,0.43894v11c0,6.34523 5.15477,11.5 11.5,11.5h33c6.34523,0 11.5,-5.15477 11.5,-11.5v-33c0,-6.34523 -5.15477,-11.5 -11.5,-11.5zM54.48633,27c-0.18484,0.00516 -0.35175,0.11191 -0.43396,0.27755c-0.08221,0.16564 -0.06629,0.36312 0.04138,0.51346c0,0 4.90625,6.91732 4.90625,14.70898c0,3.09746 -0.50023,4.56153 -0.74805,5.18359c-2.05767,-1.40845 -6.2966,-4.60773 -10.68164,-8.13477c-4.60078,-3.70057 -9.14922,-7.58846 -10.69141,-9.375c-0.16769,-0.1953 -0.45625,-0.23139 -0.66687,-0.0834c-0.21062,0.14799 -0.27448,0.4317 -0.14758,0.65566c0.01107,0.01966 0.04536,0.0602 0.05664,0.08008c1.93003,3.40119 6.38417,9.22845 9.55078,13.01367c-5.61286,-4.0052 -14.87695,-10.74219 -14.87695,-10.74219c-0.19553,-0.14131 -0.46408,-0.12287 -0.63846,0.04385c-0.17438,0.16671 -0.20487,0.43416 -0.07248,0.63584c0,0 2.86056,4.31088 6.92578,9.35156c3.83984,4.76123 8.73317,10.10051 13.4043,13.19922c-1.95961,0.68405 -4.55225,1.67188 -8.41406,1.67188c-4.43919,0 -8.86259,-0.78621 -15.23828,-4.68945c-0.2035,-0.1253 -0.46722,-0.08909 -0.62942,0.08643c-0.1622,0.17552 -0.17753,0.44127 -0.03659,0.63427c3.36852,4.61012 9.51412,14.23284 23.91406,13.96875c0.45996,-0.0081 0.92605,-0.02643 1.40234,-0.05469c5.4282,-0.26427 8.77649,-2.20467 11.70508,-3.34766c0.84785,-0.33113 1.64951,-0.5759 2.38672,-0.58203c0.92626,-0.0074 1.58928,0.16967 2.2832,0.70898c0.69393,0.53931 1.41847,1.48407 2.27734,3.01953c0.07655,0.13636 0.21249,0.22906 0.36738,0.25053c0.1549,0.02147 0.31092,-0.03076 0.42168,-0.14116c0,0 0.32589,-0.33762 0.60352,-0.96289c0.27762,-0.62527 0.54102,-1.57403 0.54102,-2.89062c0,-2.81662 -1.15214,-5.60557 -3.94922,-8.58203c0.16578,-0.37134 0.95117,-2.22843 0.95117,-5.91797c0,-6.13144 -2.47586,-14.84343 -14.22852,-22.41992c-0.08478,-0.05488 -0.1842,-0.08279 -0.28516,-0.08008zM56.02734,29.2207c9.86643,7.07895 11.97266,14.74926 11.97266,20.2793c0,3.91667 -0.94727,5.77734 -0.94727,5.77734c-0.09441,0.18954 -0.0592,0.41799 0.08789,0.57031c2.86711,2.95227 3.85742,5.50692 3.85742,8.15234c0,1.1834 -0.2332,1.98465 -0.45508,2.48438c-0.04834,0.10888 -0.04342,0.06588 -0.08594,0.14453c-0.69278,-1.13034 -1.35164,-2.14544 -2.05664,-2.69336c-0.86907,-0.67544 -1.83055,-0.92851 -2.9043,-0.91992c-0.94479,0.0079 -1.85404,0.30352 -2.74219,0.65039c-3.04142,1.18702 -6.17883,3.02752 -11.39062,3.28125c-0.00195,-0.00001 -0.00391,-0.00001 -0.00586,0c-0.46429,0.0276 -0.92042,0.04486 -1.36719,0.05273c-12.43961,0.22814 -18.19137,-6.87712 -21.74609,-11.76562c5.45277,2.95643 9.6962,3.76563 13.75586,3.76563c4.612,0 7.77882,-1.42251 9.65234,-2.02344c0.18695,-0.05946 0.32187,-0.22274 0.34501,-0.41754c0.02314,-0.19481 -0.06977,-0.38515 -0.23759,-0.48675c-4.68981,-2.84651 -9.93642,-8.56995 -13.9707,-13.57227c-2.91805,-3.61825 -3.92579,-5.19632 -4.9707,-6.71094c3.00837,2.20173 11.82396,8.66947 15.39844,11.12305c0.21298,0.14597 0.50207,0.10578 0.66716,-0.09274c0.1651,-0.19852 0.1519,-0.49009 -0.03045,-0.67289c-1.71801,-1.71654 -6.0448,-7.40039 -9.19727,-11.9668c2.09432,1.86398 4.56072,3.95551 7.28711,6.14844c4.61522,3.71218 9.28993,7.26352 11.2793,8.58789c0.11946,0.07949 0.2673,0.10383 0.40594,0.06683c0.13863,-0.03699 0.2547,-0.13176 0.31867,-0.26019c0,0 1.05273,-2.13932 1.05273,-6.22266c0,-6.4012 -2.60882,-11.07254 -3.97266,-13.2793z"></path></g></g></svg>