<svg xmlns="http://www.w3.org/2000/svg" xmlns:xlink="http://www.w3.org/1999/xlink" viewBox="0,0,255.99185,255.99185" width="100px" height="100px"><g fill="#023e8a" fill-rule="nonzero" stroke="none" stroke-width="1" stroke-linecap="butt" stroke-linejoin="miter" stroke-miterlimit="10" stroke-dasharray="" stroke-dashoffset="0" font-family="none" font-weight="none" font-size="none" text-anchor="none" style="mix-blend-mode: normal"><g transform="scale(2.56,2.56)"><path d="M44.59961,12.5c-0.06311,0.00132 -0.12541,0.01457 -0.18359,0.03906l-27.0625,11.31055c-0.17017,0.07125 -0.28728,0.23041 -0.30469,0.41406l-4.54687,47.88867c-0.01889,0.19448 0.07724,0.38215 0.24609,0.48047l25.37109,14.79883c0.20912,0.12216 0.47572,0.0769 0.63281,-0.10742l4.9043,-5.74805l20.58594,5.79883c0.09747,0.02752 0.20099,0.0248 0.29687,-0.00781l22.62305,-7.7168c0.24882,-0.08467 0.38963,-0.34751 0.32227,-0.60156l-6.38867,-24.23242l5.82422,-11.89062c0.10154,-0.20642 0.04915,-0.4555 -0.12695,-0.60352l-12.79297,-10.72266v-4.59961c-0.00006,-0.55226 -0.44774,-0.99994 -1,-1h-2.51172l-1.91602,-13.07227c-0.03515,-0.24105 -0.23889,-0.4217 -0.48242,-0.42773c-0.12719,-0.0032 -0.25082,0.0422 -0.3457,0.12695l-9.70117,8.61719l-13.1582,-8.66211c-0.08456,-0.05556 -0.18399,-0.08417 -0.28516,-0.08203zM44.55664,13.56445l12.71289,8.36719l-4.57812,4.06836h-25.69141c-0.55226,0.00006 -0.99994,0.44774 -1,1v46c0.00006,0.55226 0.44774,0.99994 1,1h7.76758l-0.90234,4.33398c-0.05403,0.25733 0.10047,0.51254 0.35352,0.58398l8.37695,2.35938l-4.33398,5.08008l-24.73437,-14.42773l4.48828,-47.27344zM67.7168,13.98828l1.76172,12.01172h-15.2832zM44.28516,15.88086c-0.2209,0.00176 -0.41447,0.14826 -0.47617,0.36037c-0.0617,0.21212 0.0231,0.43958 0.20859,0.55955l7.97852,5.25195c0.14893,0.10629 0.34402,0.12276 0.50866,0.04294c0.16464,-0.07983 0.27253,-0.2432 0.28131,-0.42596c0.00878,-0.18276 -0.08296,-0.35572 -0.23919,-0.45096l-7.98047,-5.25195c-0.08302,-0.05619 -0.18101,-0.08613 -0.28125,-0.08594zM20.35156,25.87891c-0.25637,0.00517 -0.46728,0.20343 -0.48828,0.45898l-0.95117,10.04102c-0.02763,0.18322 0.04832,0.36671 0.19737,0.47679c0.14905,0.11009 0.34675,0.12873 0.51375,0.04845c0.167,-0.08028 0.27591,-0.24633 0.28302,-0.43149l0.95313,-10.03906c0.01577,-0.14317 -0.03096,-0.28618 -0.12821,-0.39241c-0.09726,-0.10624 -0.2356,-0.16538 -0.3796,-0.16227zM28,28h44v44h-44zM58.00781,32.375c-6.06856,0 -10.33008,4.6907 -10.33008,10.33008c0,5.64462 4.36723,10.22881 10.23047,10.12109c0.0014,-0.00003 0.00251,0.00003 0.00391,0c3.70572,-0.0026 6.11614,-1.36713 8.08008,-3.54883c0.17714,-0.19797 0.16857,-0.4999 -0.01953,-0.6875l-2.64258,-2.64258c-0.1899,-0.19011 -0.49611,-0.19615 -0.69336,-0.01367c-1.44183,1.33857 -2.6483,2.08594 -4.62891,2.08594c-2.98886,0 -4.96101,-2.3424 -4.98633,-5.36523c0.02497,-3.0143 2.11046,-5.36914 4.98633,-5.36914c1.77338,0 3.09964,0.65865 4.52344,1.98047c0.09941,0.09244 0.23212,0.1405 0.36767,0.13314c0.13555,-0.00737 0.26228,-0.06953 0.35108,-0.1722l2.64258,-3.06445c0.17065,-0.19832 0.15958,-0.49465 -0.02539,-0.67969c-1.85944,-1.85943 -4.15751,-3.10742 -7.85938,-3.10742zM31.58008,32.69141c-0.27613,0.00003 -0.49997,0.22387 -0.5,0.5v18.92188c0.00003,0.27613 0.22387,0.49997 0.5,0.5h4.12305c0.27613,-0.00003 0.49997,-0.22387 0.5,-0.5v-5.10156h2.66992c2.20569,0 4.2251,-0.6055 5.70898,-1.81836c1.48388,-1.21286 2.40234,-3.0447 2.40234,-5.3418v-0.10742c0,-2.07261 -0.74077,-3.86326 -2.10352,-5.11133c-1.36274,-1.24807 -3.31955,-1.94141 -5.68945,-1.94141zM74,32.9043l11.84961,9.93359l-5.14453,10.5l-2.41797,-9.17383c-0.05722,-0.21797 -0.25317,-0.37073 -0.47852,-0.37305c-0.06339,-0.00079 -0.12636,0.01047 -0.18555,0.0332l-3.62305,1.39063zM58.00781,33.375c3.25849,0 5.12071,1.00534 6.77148,2.54492l-1.99805,2.31836c-1.41766,-1.1998 -2.92157,-1.95312 -4.77344,-1.95312c-3.33084,0 -5.76707,2.72941 -5.93359,6.08008c-0.03975,0.07181 -0.06122,0.1523 -0.0625,0.23438v0.10547c0.00071,0.08042 0.02081,0.15948 0.05859,0.23047c0.15881,3.34337 2.51167,6.08398 5.9375,6.08398c2.06,0 3.51232,-0.85063 4.91211,-2.06836l1.95117,1.95117c-1.75308,1.81639 -3.70674,2.92383 -6.96875,2.92383c-0.0026,-0.00002 -0.00521,-0.00002 -0.00781,0c-5.3407,0.10008 -9.2168,-3.98502 -9.2168,-9.12109c0,-5.14262 3.77064,-9.33008 9.33008,-9.33008zM32.08008,33.69141h7.11133c2.1761,0 3.86591,0.62656 5.01367,1.67773c1.14776,1.05118 1.7793,2.53661 1.7793,4.375v0.10742c0,2.0369 -0.77054,3.53472 -2.03516,4.56836c-1.26462,1.03364 -3.05386,1.5918 -5.07617,1.5918h-3.16992c-0.27613,0.00003 -0.49997,0.22387 -0.5,0.5v5.10156h-3.12305zM35.70313,36.39258c-0.27613,0.00003 -0.49997,0.22387 -0.5,0.5v5.8125c0.00003,0.27613 0.22387,0.49997 0.5,0.5h3.27734c1.15705,0 2.11167,-0.35214 2.77148,-0.96484c0.65981,-0.6127 1.00586,-1.47388 1.00586,-2.38867v-0.10547c0,-1.06264 -0.37983,-1.953 -1.08203,-2.52734c-0.7022,-0.57435 -1.67076,-0.82617 -2.80273,-0.82617zM36.20313,37.39258h2.66992c0.98202,0 1.70717,0.22271 2.16797,0.59961c0.4608,0.3769 0.7168,0.91355 0.7168,1.75391v0.10547c0,0.67021 -0.23731,1.23821 -0.6875,1.65625c-0.45019,0.41805 -1.13289,0.69727 -2.08984,0.69727h-2.77734zM19.10742,39c-0.25637,0.00517 -0.46728,0.20343 -0.48828,0.45898l-0.56641,5.96289c-0.02643,0.27506 0.17513,0.51947 0.4502,0.5459c0.27506,0.02643 0.51947,-0.17513 0.5459,-0.4502l0.56641,-5.96289c0.01577,-0.14317 -0.03096,-0.28618 -0.12821,-0.39241c-0.09726,-0.10624 -0.2356,-0.16538 -0.3796,-0.16227zM77.46289,44.95703l8.93555,33.89649l-22.03516,7.51758l-29.42383,-8.28906l0.84961,-4.08203h37.21094c0.55226,-0.00006 0.99994,-0.44774 1,-1v-26.71289zM18.24609,48.08398c-0.25637,0.00517 -0.46728,0.20343 -0.48828,0.45898l-2.08789,21.98438c-0.02643,0.27506 0.17513,0.51947 0.4502,0.5459c0.27506,0.02643 0.51947,-0.17513 0.5459,-0.4502l2.08594,-21.98437c0.01572,-0.14282 -0.03075,-0.2855 -0.12757,-0.39167c-0.09682,-0.10616 -0.23463,-0.16555 -0.37829,-0.16302zM31.5,63.5c-0.27613,0.00003 -0.49997,0.22387 -0.5,0.5v3.12695c0.00003,0.27613 0.22387,0.49997 0.5,0.5h16.95703c0.27613,-0.00003 0.49997,-0.22387 0.5,-0.5v-3.12695c-0.00003,-0.27613 -0.22387,-0.49997 -0.5,-0.5zM32,64.5h15.95703v2.12695h-15.95703zM80.87305,67.1543c-0.15896,-0.00464 -0.31066,0.06661 -0.40859,0.19191c-0.09793,0.1253 -0.13042,0.28972 -0.08751,0.44285l2.4082,9.12695l-9.43164,3.2168c-0.16923,0.05755 -0.29491,0.20102 -0.32967,0.37636c-0.03476,0.17534 0.02667,0.3559 0.16114,0.47367c0.13448,0.11776 0.32157,0.15483 0.49079,0.09724l9.87305,-3.36719c0.24882,-0.08467 0.38963,-0.34751 0.32227,-0.60156l-2.52734,-9.57812c-0.05422,-0.21754 -0.2466,-0.3724 -0.4707,-0.37891zM70.50391,81.13867c-0.06184,-0.00155 -0.12343,0.00838 -0.18164,0.0293l-4.96094,1.69336c-0.17788,0.05044 -0.3134,0.19491 -0.35239,0.37564c-0.03899,0.18073 0.02493,0.36823 0.1662,0.48751c0.14126,0.11928 0.33682,0.15088 0.50846,0.08217l4.96094,-1.69336c0.23022,-0.07604 0.37272,-0.30627 0.3381,-0.54623c-0.03462,-0.23996 -0.2364,-0.42052 -0.47872,-0.42838z"></path></g></g></svg>